<?xml version="1.0" encoding="utf-8"?>
<!-- Generated by Mocodo 4.2.4 -->
<svg width="327" height="229" viewBox="0 0 327 229" xmlns="http://www.w3.org/2000/svg">
<rect x="0" y="0" width="327" height="229" fill="#ffffbf" stroke="none" stroke-width="0"/>

<!-- Association APPARTENIR -->
<g>
	<line x1="172" y1="169" x2="55" y2="169" stroke="#f46d43" stroke-width="2"/>
	<line x1="55" y1="51" x2="55" y2="169" stroke="#f46d43" stroke-width="2"/>
	<g>
		<path d="M87 144 a14 14 90 0 1 14 14 V169 h-92 V158 a14 14 90 0 1 14 -14" fill="#fdae61" stroke="#fdae61" stroke-width="0"/>
		<path d="M101 169 v11 a14 14 90 0 1 -14 14 H23 a14 14 90 0 1 -14 -14 V169 H92" fill="#fee08b" stroke="#fee08b" stroke-width="0"/>
		<rect x="9" y="144" width="92" height="50" fill="none" rx="14" stroke="#f46d43" stroke-width="2"/>
		<line x1="9" y1="169" x2="101" y2="169" stroke="#f46d43" stroke-width="1"/>
		<text x="16" y="161.75" fill="#000000" font-family="Verdana" font-size="12">APPARTENIR</text>
	</g>
	<text x="107" y="186" fill="#3288bd" font-family="Verdana" font-size="12">1,1</text>
	<text x="60" y="110" fill="#3288bd" font-family="Verdana" font-size="12">0,N</text>
</g>

<!-- Association POSSEDE -->
<g>
	<line x1="280" y1="51" x2="280" y2="169" stroke="#f46d43" stroke-width="2"/>
	<line x1="172" y1="169" x2="280" y2="169" stroke="#f46d43" stroke-width="2"/>
	<g>
		<path d="M303 144 a14 14 90 0 1 14 14 V169 h-74 V158 a14 14 90 0 1 14 -14" fill="#fdae61" stroke="#fdae61" stroke-width="0"/>
		<path d="M317 169 v11 a14 14 90 0 1 -14 14 H257 a14 14 90 0 1 -14 -14 V169 H74" fill="#fee08b" stroke="#fee08b" stroke-width="0"/>
		<rect x="243" y="144" width="74" height="50" fill="none" rx="14" stroke="#f46d43" stroke-width="2"/>
		<line x1="243" y1="169" x2="317" y2="169" stroke="#f46d43" stroke-width="1"/>
		<text x="251" y="161.75" fill="#000000" font-family="Verdana" font-size="12">POSSEDE</text>
	</g>
	<text x="285" y="110" fill="#3288bd" font-family="Verdana" font-size="12">0,N</text>
	<text x="216" y="186" fill="#3288bd" font-family="Verdana" font-size="12">0,N</text>
</g>

<!-- Entity LISTE -->
<g>
	<g>
		<rect x="19" y="9" width="72" height="25" fill="#abdda4" stroke="none" stroke-width="0" opacity="1"/>
		<rect x="19" y="34" width="72" height="59" fill="#e6f598" stroke="none" stroke-width="0" opacity="1"/>
		<rect x="19" y="9" width="72" height="84" fill="none" stroke="#66c2a5" stroke-width="2" opacity="1"/>
		<line x1="19" y1="34" x2="91" y2="34" stroke="#66c2a5" stroke-width="1"/>
	</g>
	<text x="37" y="26.75" fill="#000000" font-family="Verdana" font-size="12">LISTE</text>
	<text x="24" y="51.8" fill="#000000" font-family="Verdana" font-size="12">code_liste</text>
	<line x1="24" y1="54" x2="86" y2="54" stroke="#000000" stroke-width="1"/>
	<text x="24" y="68.8" fill="#000000" font-family="Verdana" font-size="12">nom</text>
	<text x="24" y="85.8" fill="#000000" font-family="Verdana" font-size="12">ordre</text>
</g>

<!-- Entity LABEL -->
<g>
	<g>
		<rect x="242" y="9" width="76" height="25" fill="#abdda4" stroke="none" stroke-width="0" opacity="1"/>
		<rect x="242" y="34" width="76" height="59" fill="#e6f598" stroke="none" stroke-width="0" opacity="1"/>
		<rect x="242" y="9" width="76" height="84" fill="none" stroke="#66c2a5" stroke-width="2" opacity="1"/>
		<line x1="242" y1="34" x2="318" y2="34" stroke="#66c2a5" stroke-width="1"/>
	</g>
	<text x="261" y="26.75" fill="#000000" font-family="Verdana" font-size="12">LABEL</text>
	<text x="247" y="51.8" fill="#000000" font-family="Verdana" font-size="12">code_label</text>
	<line x1="247" y1="54" x2="312" y2="54" stroke="#000000" stroke-width="1"/>
	<text x="247" y="68.8" fill="#000000" font-family="Verdana" font-size="12">nom</text>
	<text x="247" y="85.8" fill="#000000" font-family="Verdana" font-size="12">couleur</text>
</g>

<!-- Entity CARTE -->
<g>
	<g>
		<rect x="133" y="118" width="78" height="25" fill="#abdda4" stroke="none" stroke-width="0" opacity="1"/>
		<rect x="133" y="143" width="78" height="77" fill="#e6f598" stroke="none" stroke-width="0" opacity="1"/>
		<rect x="133" y="118" width="78" height="102" fill="none" stroke="#66c2a5" stroke-width="2" opacity="1"/>
		<line x1="133" y1="143" x2="211" y2="143" stroke="#66c2a5" stroke-width="1"/>
	</g>
	<text x="152" y="135.75" fill="#000000" font-family="Verdana" font-size="12">CARTE</text>
	<text x="138" y="160.8" fill="#000000" font-family="Verdana" font-size="12">code_carte</text>
	<line x1="138" y1="163" x2="205" y2="163" stroke="#000000" stroke-width="1"/>
	<text x="138" y="177.8" fill="#000000" font-family="Verdana" font-size="12">titre</text>
	<text x="138" y="194.8" fill="#000000" font-family="Verdana" font-size="12">ordre</text>
	<text x="138" y="211.8" fill="#000000" font-family="Verdana" font-size="12">couleur</text>
</g>
</svg>